<?xml version="1.0" encoding="utf-8"?>
<!-- Generator: Adobe Illustrator 24.1.0, SVG Export Plug-In . SVG Version: 6.00 Build 0)  -->
<svg version="1.1" id="Layer_1" xmlns="http://www.w3.org/2000/svg" xmlns:xlink="http://www.w3.org/1999/xlink" x="0px" y="0px"
	 viewBox="0 0 516 116" style="enable-background:new 0 0 516 116;" xml:space="preserve">
<style type="text/css">
	.st0{fill-rule:evenodd;clip-rule:evenodd;fill:#2D8CFF;}
</style>
<g>
	<path class="st0" d="M209.2,17c-11.3-11.3-26.1-17-41-17l0,0c-14.8,0-29.7,5.7-41,17c-22.6,22.6-22.6,59.3,0,82
		c22.6,22.6,59.3,22.6,82,0C231.8,76.4,231.8,39.6,209.2,17z M192.8,82.6c-13.6,13.6-35.7,13.6-49.1,0C130,69,130,47,143.6,33.5
		c13.6-13.6,35.7-13.6,49.1,0C206.3,47,206.3,69,192.8,82.6z"/>
	<path class="st0" d="M330.9,17c-11.3-11.3-26.1-17-41-17c-14.8,0-29.7,5.7-41,17c-22.6,22.6-22.6,59.3,0,82
		c22.6,22.6,59.3,22.6,82,0C353.5,76.4,353.5,39.6,330.9,17z M314.5,82.6c-13.6,13.6-35.7,13.6-49.1,0c-13.6-13.6-13.6-35.7,0-49.1
		c13.6-13.6,35.7-13.6,49.1,0C328,47,328,69,314.5,82.6z"/>
	<path class="st0" d="M23.2,115.7L29,116h87l-0.3-5.8c-0.7-9.6-7.5-16.5-17.1-17.1l-5.8-0.3H40.6l69.6-69.6l-0.3-5.8
		c-0.4-9.6-7.5-16.7-17.1-17.1L87,0H0l0.3,5.8C1,15.2,8,22.3,17.4,22.9l5.8,0.3h52.2L5.8,92.8l0.3,5.8
		C6.7,108.1,13.6,115.1,23.2,115.7z"/>
	<path class="st0" d="M420,34.8c2,3.5,2.6,7.2,2.9,11.6l0.3,5.8v40.6l0.3,5.8c0.6,9.4,7.5,16.5,17.1,17.1l5.8,0.3V52.2l0.3-5.8
		c0.3-4.3,0.9-8.3,2.9-11.7c4.1-7,11.5-11.5,20-11.5s16.1,4.6,20.1,11.6c2,3.5,2.6,7.4,2.8,11.6l0.3,5.8v40.6l0.3,5.8
		c0.6,9.6,7.5,16.5,17.1,17.1l5.8,0.3V52.2v-5.8C516,20.7,495.3,0,469.6,0c-13.9,0-26.2,6.1-34.8,15.7C426.3,6.1,414,0,400,0
		c-9.6,0-18.6,2.9-25.9,8c-4.5-5.1-14.6-8-20.4-8v116l5.8-0.3c9.7-0.6,16.7-7.5,17.1-17.1l0.3-5.8V52.2l0.3-5.8
		c0.3-4.3,0.9-8.3,2.9-11.6c4.1-7,11.5-11.6,20-11.6C408.6,23.2,416.1,27.8,420,34.8z"/>
</g>
</svg>
